<svg id="visual" viewBox="0 0 675 900" width="675" height="900" xmlns="http://www.w3.org/2000/svg" xmlns:xlink="http://www.w3.org/1999/xlink" version="1.1"><rect x="0" y="0" width="675" height="900" fill="#001220"></rect><defs><linearGradient id="grad1_0" x1="0%" y1="0%" x2="100%" y2="100%"><stop offset="30%" stop-color="#001220" stop-opacity="1"></stop><stop offset="70%" stop-color="#001220" stop-opacity="1"></stop></linearGradient></defs><defs><linearGradient id="grad2_0" x1="0%" y1="0%" x2="100%" y2="100%"><stop offset="30%" stop-color="#001220" stop-opacity="1"></stop><stop offset="70%" stop-color="#001220" stop-opacity="1"></stop></linearGradient></defs><g transform="translate(675, 0)"><path d="M0 337.5C-43.2 324.6 -86.4 311.7 -120.2 290.1C-153.9 268.5 -178.3 238.3 -212.1 212.1C-246 186 -289.3 163.8 -311.8 129.2C-334.3 94.5 -335.9 47.2 -337.5 0L0 0Z" fill="#FBAE3C"></path></g><g transform="translate(0, 900)"><path d="M0 -337.5C50.2 -339.5 100.3 -341.6 129.2 -311.8C158 -282.1 165.5 -220.5 183.1 -183.1C200.8 -145.8 228.5 -132.5 255.9 -106C283.3 -79.5 310.4 -39.8 337.5 0L0 0Z" fill="#FBAE3C"></path></g></svg>