<svg id="visual" viewBox="0 0 960 540" width="960" height="540" xmlns="http://www.w3.org/2000/svg" xmlns:xlink="http://www.w3.org/1999/xlink" version="1.1"><rect x="0" y="0" width="960" height="540" fill="#001220"></rect><defs><linearGradient id="grad1_0" x1="43.8%" y1="0%" x2="100%" y2="100%"><stop offset="14.444444444444446%" stop-color="#001220" stop-opacity="1"></stop><stop offset="85.55555555555554%" stop-color="#001220" stop-opacity="1"></stop></linearGradient></defs><defs><linearGradient id="grad2_0" x1="0%" y1="0%" x2="56.3%" y2="100%"><stop offset="14.444444444444446%" stop-color="#001220" stop-opacity="1"></stop><stop offset="85.55555555555554%" stop-color="#001220" stop-opacity="1"></stop></linearGradient></defs><g transform="translate(960, 0)"><path d="M0 324C-46.1 324.4 -92.1 324.8 -124 299.3C-155.9 273.9 -173.6 222.5 -183.8 183.8C-194.1 145.2 -196.8 119.2 -219 90.7C-241.1 62.2 -282.5 31.1 -324 0L0 0Z" fill="#FBAE3C"></path></g><g transform="translate(0, 540)"><path d="M0 -324C44.5 -320.3 88.9 -316.5 122.8 -296.6C156.7 -276.6 180.1 -240.4 210.7 -210.7C241.3 -181.1 279.2 -158 299.3 -124C319.4 -90 321.7 -45 324 0L0 0Z" fill="#FBAE3C"></path></g></svg>